<svg xmlns="http://www.w3.org/2000/svg" version="1.1" xmlns:xlink="http://www.w3.org/1999/xlink" xmlns:svgjs="http://svgjs.dev/svgjs" width="1000" height="1000" viewBox="0 0 1000 1000"><rect width="1000" height="1000" fill="#ffffff"></rect><g transform="matrix(0.7,0,0,0.7,149.57575757575768,403.0837637825101)"><svg viewBox="0 0 396 110" data-background-color="#161d29" preserveAspectRatio="xMidYMid meet" height="277" width="1000" xmlns="http://www.w3.org/2000/svg" xmlns:xlink="http://www.w3.org/1999/xlink"><g id="tight-bounds" transform="matrix(1,0,0,1,0.23999999999992383,-0.01915428610681147)"><svg viewBox="0 0 395.5199999999999 110.0383085722136" height="110.0383085722136" width="395.5199999999999"><g><svg viewBox="0 0 661.2335714873387 183.9629444215985" height="110.0383085722136" width="395.5199999999999"><g transform="matrix(1,0,0,1,265.71357148733875,46.906556744299564)"><svg viewBox="0 0 395.52 90.14983093299938" height="90.14983093299938" width="395.52"><g id="textblocktransform"><svg viewBox="0 0 395.52 90.14983093299938" height="90.14983093299938" width="395.52" id="textblock"><g><svg viewBox="0 0 395.52 90.14983093299938" height="90.14983093299938" width="395.52"><g transform="matrix(1,0,0,1,0,0)"><svg width="395.52" viewBox="1.8 -35.7 159.69 36.400000000000006" height="90.14983093299938" data-palette-color="#ffffff"><path d="M11.8 0.7Q9.25 0.7 6.58 0.13 3.9-0.45 2.1-1.35L2.1-1.35 2.75-7.15Q7.5-4.35 12.25-4.35L12.25-4.35Q15.05-4.35 16.63-5.48 18.2-6.6 18.2-8.75L18.2-8.75Q18.2-11.05 16.57-12.5 14.95-13.95 10.85-15.75L10.85-15.75Q7.7-17.15 5.8-18.45 3.9-19.75 2.85-21.6 1.8-23.45 1.8-26.1L1.8-26.1Q1.8-28.95 3.25-31.13 4.7-33.3 7.33-34.5 9.95-35.7 13.45-35.7L13.45-35.7Q18.2-35.7 22.3-33.75L22.3-33.75 21.75-28.2Q17.3-30.65 13.05-30.65L13.05-30.65Q10.4-30.65 8.95-29.6 7.5-28.55 7.5-26.35L7.5-26.35Q7.5-24.8 8.35-23.75 9.2-22.7 10.6-21.93 12-21.15 15.1-19.7L15.1-19.7Q19.65-17.55 21.75-15.18 23.85-12.8 23.85-9.15L23.85-9.15Q23.85-4.6 20.65-1.95 17.45 0.7 11.8 0.7L11.8 0.7ZM28.65 0L28.65-35 33.85-35 33.85 0 28.65 0ZM45.05 0L34.1-18.55 45.05-35 51.05-35 39.95-18.55 51.05 0 45.05 0ZM54.85 0L54.85-35 60.1-35 60.1 0 54.85 0ZM66.79 0L66.79-35 72.04-35 72.04-4.8 84.69-4.8 84.69 0 66.79 0ZM88.29 0L88.29-35 93.54-35 93.54-4.8 106.19-4.8 106.19 0 88.29 0ZM121.44 0.7Q115.14 0.7 112.04-3.08 108.94-6.85 108.94-13.7L108.94-13.7 108.94-35 114.19-35 114.19-15.15Q114.19-9.9 115.66-7.13 117.14-4.35 121.44-4.35L121.44-4.35Q124.39-4.35 125.99-5.73 127.59-7.1 128.14-9.43 128.69-11.75 128.69-15.15L128.69-15.15 128.69-35 133.94-35 133.94-13.7Q133.94-6.85 130.84-3.08 127.74 0.7 121.44 0.7L121.44 0.7ZM140.29 0L140.29-35 149.79-35Q155.29-35 158.39-32.08 161.49-29.15 161.49-23.55L161.49-23.55Q161.49-17.9 158.39-14.98 155.29-12.05 149.79-12.05L149.79-12.05 145.54-12.05 145.54 0 140.29 0ZM145.54-16.75L149.34-16.75Q152.74-16.75 154.39-18.43 156.04-20.1 156.04-23.55L156.04-23.55Q156.04-30.35 149.34-30.35L149.34-30.35 145.54-30.35 145.54-16.75Z" opacity="1" transform="matrix(1,0,0,1,0,0)" fill="#000000" class="wordmark-text-0" data-fill-palette-color="primary" id="text-0"></path></svg></g></svg></g></svg></g></svg></g><g><svg viewBox="0 0 244.43135999999998 183.9629444215985" height="183.9629444215985" width="244.43135999999998"><g><svg xmlns="http://www.w3.org/2000/svg" xmlns:xlink="http://www.w3.org/1999/xlink" version="1.1" x="0" y="0" viewBox="10.074798390981691 70.9 491.88538910120485 370.20079787234056" style="enable-background:new 0 0 512 512;" xml:space="preserve" height="183.9629444215985" width="244.43135999999998" class="icon-icon-0" data-fill-palette-color="accent" id="icon-0"><g fill="#ffd60a" data-fill-palette-color="accent"><path d="M255 152.6c19.3 0 35-15.7 35-35.1v-11.6c0-19.3-15.7-35-35-35s-35 15.7-35 35v11.6C220 136.8 235.6 152.5 255 152.6z" fill="#000000" data-fill-palette-color="accent"></path><path d="M501.1 262.4c-2.8-10.4-12.3-17.6-23-17.6-6.4 0-12.4 2.6-16.9 7.2-3 3.1-5.1 6.9-6.2 11H334v-32h25.1c13.3 0.1 24.1-10.6 24.2-23.9 0 0 0 0 0-0.1 0-6.7 5.4-12 12.1-12 0 0 0.1 0 0.1 0h33.7c1.1 4 3.2 7.7 6.2 10.6 9.3 9.4 24.5 9.4 33.8 0.1 9.4-9.3 9.4-24.5 0.1-33.8-9.3-9.4-24.5-9.4-33.8-0.1 0 0-0.1 0.1-0.1 0.1-3.2 2.9-5.4 6.8-6.2 11.1h-33.7c-13.3-0.1-24.1 10.6-24.2 23.9 0 0 0 0 0 0.1 0 6.7-5.4 12-12.1 12 0 0-0.1 0-0.1 0H334v-25c0.1-2.8 0-5.6-0.3-8.4 11.7-0.4 22.1-7.8 26.1-18.8l11.8-31.9c2.5-6.6 8.8-11 15.8-11h3.1c0.8 4.9 3.1 9.4 6.7 12.9 9.3 9.3 24.4 9.3 33.8 0 9.3-9.3 9.3-24.4 0-33.8-9.3-9.3-24.4-9.3-33.8 0 0 0 0 0 0 0-2.4 2.6-4.3 5.6-5.6 8.9h-4.2c-12.1 0-22.9 7.5-27.1 18.8l-11.8 32c-2.5 6.6-8.8 11.1-15.8 11.1h-3c-1.1-2.1-2.4-4.1-3.9-6-6.1-7.4-14.9-12.1-24.4-13-0.4 0-1.3 0-26.8 0h0c-2.1-0.1-4.1 1-5.2 2.8l-13.5 23.5L243 157.9c-1.1-1.9-3.1-3-5.3-2.9h-24.1c-9.6-0.1-18.8 3.7-25.6 10.5-2.5 2.5-4.7 5.4-6.4 8.5h-2.4c-7.1-0.1-13.4-4.5-15.8-11.2l-11.8-32c-4.2-11.3-15-18.8-27.1-18.9h-4.2c-1.3-3.3-3.2-6.3-5.6-8.9-9.3-9.3-24.4-9.2-33.7 0.1-9.3 9.3-9.2 24.4 0.1 33.7 9.3 9.2 24.3 9.2 33.6 0 3.5-3.5 5.9-8 6.7-12.9h3.1c7.1 0 13.4 4.4 15.8 11l11.8 31.9c4 10.8 14.1 18.2 25.6 18.8-0.2 1.7-0.4 3.4-0.4 5.1 0 0.4 0 13.2 0.1 28.2h-24.6c-6.7 0.1-12.1-5.2-12.2-11.9 0 0 0-0.1 0-0.1 0-13.3-10.8-24-24.1-24 0 0 0 0-0.1 0H82.8c-0.8-4.3-3-8.2-6.2-11.1-9.3-9.3-24.4-9.4-33.7-0.1-9.3 9.3-9.3 24.3-0.1 33.6 0 0 0 0 0.1 0.1 4.5 4.5 10.7 7 17.1 7 6.4-0.1 12.5-2.6 17.1-7v0.2c2.9-3 4.9-6.6 5.8-10.6h33.7c6.7-0.1 12.1 5.2 12.2 11.9 0 0 0 0.1 0 0.1 0 13.3 10.8 24 24.1 24 0 0 0 0 0.1 0h24.6c0 13 0.1 26 0.1 32H56.9c-1.1-4.2-3.2-8-6.2-11-9.3-9.3-24.3-9.4-33.6-0.1s-9.4 24.3-0.1 33.6c4.5 4.5 10.6 7 16.9 7 10.8 0.1 20.3-7.1 23.1-17.5h122.9c1.1 2.1 2.6 4.1 4.3 5.8 4.1 4.1 9.8 6.3 15.6 6.2h0.3c3.6-0.1 7.2-1.1 10.3-2.9l0.7 21.9h-57.9c-13.4 0.2-24.2 11.1-24.2 24.5 0 6.8-5.4 12.3-12.2 12.5H82.8c-1.1-4.1-3.2-7.9-6.2-11-9.3-9.3-24.4-9.3-33.7-0.1-9.3 9.3-9.3 24.5 0 33.8 9.3 9.3 24.5 9.3 33.8 0 3-3 5.1-6.6 6.2-10.7h33.7c13.4-0.2 24.2-11.1 24.2-24.5 0-6.8 5.4-12.3 12.2-12.5h58.3l1 34h-32.9c-12-0.1-22.9 7.4-27.1 18.6l-11.8 31.6c-2.5 6.5-8.8 10.8-15.8 10.7h-3.1c-1-4.8-3.3-9.2-6.7-12.7-9.3-9.5-24.5-9.6-34-0.3s-9.6 24.5-0.3 34c9.3 9.5 24.5 9.6 34 0.3 0.1-0.1 0.2-0.2 0.3-0.3 2.7-2.4 4.6-5.6 5.6-9h4.2c12 0.1 22.9-7.4 27.1-18.7l11.8-31.6c2.5-6.5 8.8-10.8 15.8-10.7h33.2l1.6 53.1c0 0.1 0 0.3 0 0.4 0.7 7.7 7.2 13.6 15 13.5h53.6c7.8 0 14.3-5.9 15-13.7 0-0.1 0-0.2 0-0.2l1.5-53.1h33.5c7-0.1 13.4 4.2 15.8 10.8l11.8 31.6c4.3 11.2 15.1 18.6 27.1 18.6h4.2c1 3.5 2.9 6.6 5.6 9 9.2 9.4 24.3 9.4 33.7 0.2 0 0 0 0 0.1-0.1 9.3-9.3 9.3-24.4 0-33.7 0 0 0 0 0 0-9.3-9.4-24.4-9.4-33.7-0.2-3.4 3.5-5.7 8-6.7 12.7h-3.1c-7 0.1-13.3-4.3-15.8-10.8l-11.8-31.6c-4.3-11.2-15.1-18.6-27.1-18.5h-33.2l0.9-34h58.6c6.8 0.2 12.2 5.7 12.2 12.5 0 13.4 10.8 24.3 24.2 24.5h33.7c3.3 12.7 16.4 20.4 29.1 17 12.7-3.3 20.4-16.4 17-29.1-1.1-4.2-3.3-8-6.4-11-9.3-9.3-23.9-9.3-33.9 0v0.1c-2.9 3.1-4.9 6.9-5.8 11h-33.7c-6.8-0.2-12.2-5.7-12.2-12.5 0-13.4-10.8-24.3-24.2-24.5h-58.3l0.6-21.6c3.2 1.8 6.7 2.8 10.3 2.8 8.4-0.1 16-4.8 19.9-12.2H455c3.5 12.7 16.6 20.2 29.4 16.7C497.1 288.2 504.6 275.1 501.1 262.4z" fill="#000000" data-fill-palette-color="accent"></path></g></svg></g></svg></g></svg></g><defs></defs></svg><rect width="395.5199999999999" height="110.0383085722136" fill="none" stroke="none" visibility="hidden"></rect></g></svg></g></svg>